<?xml version="1.0" ?><!-- Uploaded to: SVG Repo, www.svgrepo.com, Generator: SVG Repo Mixer Tools -->
<svg fill="white" width="800px" height="800px" viewBox="0 0 24 24" id="Main" xmlns="http://www.w3.org/2000/svg"><title/><path d="M20,5H15V4a2,2,0,0,0-2-2H4A2,2,0,0,0,2,4V17a2,2,0,0,0,2,2H9v1a2,2,0,0,0,2,2h9a2,2,0,0,0,2-2V7A2,2,0,0,0,20,5ZM4,17V4h9V5H11A2,2,0,0,0,9,7H6A1,1,0,0,0,6,9H9v1H6a1,1,0,0,0,0,2H9v1H6a1,1,0,0,0,0,2H9v2Zm7,3V7h9V20Z"/><path d="M18.45,8.11a1,1,0,0,0-1.34.44L14.88,13l-1.05-1.56a1,1,0,1,0-1.66,1.1l2,3A1,1,0,0,0,15,16h.06a1,1,0,0,0,.83-.55l3-6A1,1,0,0,0,18.45,8.11Z"/></svg>
