<svg version="1.1" id="Layer_1" xmlns="http://www.w3.org/2000/svg" xmlns:xlink="http://www.w3.org/1999/xlink" x="0px" y="0px"
     width="100%" viewBox="0 0 500 500" enable-background="new 0 0 500 500" xml:space="preserve">

<path fill="#FFFFFF" opacity="1.000000" stroke="none"
    d="
M501.000000,450.531342
    C499.360779,450.063904 499.443024,451.542847 498.841003,452.380737
    C494.681152,458.170441 486.528259,458.811096 481.381073,453.878784
    C465.714233,438.865875 450.192566,423.696472 434.308136,408.917175
    C420.490753,396.061127 406.948242,382.925598 393.271057,369.928009
    C379.926483,357.246552 366.582184,344.564362 353.231293,331.889771
    C339.667755,319.013306 326.120148,306.121307 312.572357,293.228546
    C298.783508,280.106384 284.987061,266.990326 271.155151,253.916275
    C265.146545,248.236847 259.160187,242.527328 253.306656,236.692230
    C251.348328,234.740067 250.401459,235.042709 248.599701,236.818100
    C237.964615,247.297363 227.337921,257.793182 216.429871,267.985382
    C202.154434,281.323975 187.977982,294.756348 173.998459,308.408081
    C160.215729,321.867676 145.964798,334.846680 131.998810,348.120148
    C118.944084,360.527588 106.137398,373.199127 92.957893,385.471283
    C79.146484,398.331879 65.672691,411.551971 51.844559,424.375244
    C41.547970,433.923645 31.989470,444.230988 21.290930,453.371246
    C14.865239,458.861023 7.469880,458.425232 2.778247,451.328033
    C2.519714,450.936951 1.995064,450.721771 1.297140,450.712341
    C1.000000,379.312439 1.000000,307.624878 1.000000,235.468658
    C7.142944,226.622345 14.983601,219.865982 22.449726,212.772202
    C24.730867,210.604828 27.215302,208.623688 29.448036,206.380554
    C48.711327,187.027542 68.924904,168.661774 88.460663,149.586670
    C101.671646,136.687210 115.133476,124.024979 128.569763,111.350266
    C145.522812,95.358116 162.183670,79.066490 179.021362,62.958534
    C193.934143,48.692062 208.789764,34.358360 223.856491,20.262232
    C230.631088,13.924047 236.693527,6.723883 244.746124,1.245348
    C248.692917,1.000000 252.385818,1.000000 256.539368,1.000000
    C259.199188,2.493653 261.277985,4.107818 263.194977,5.982177
    C281.286652,23.671398 299.720947,41.005409 317.939880,58.563301
    C333.758423,73.807899 349.614807,89.019150 365.512268,104.182014
    C387.431366,125.088280 409.391785,145.950012 431.250305,166.921173
    C445.901215,180.977310 460.698059,194.881638 475.319031,208.973251
    C482.146332,215.553391 489.146362,221.963959 495.852600,228.678131
    C497.618896,230.446548 499.413269,232.188721 500.754639,234.746124
    C501.000000,306.687561 501.000000,378.375122 501.000000,450.531342
z"/>
<path fill="#000000" opacity="1.000000" stroke="none"
    d="
M247.696442,209.098541
    C244.113968,211.707016 240.718475,214.005112 237.787796,216.791992
    C226.966766,227.081985 216.377823,237.616089 205.555298,247.904480
    C190.670959,262.054199 175.768402,276.183319 160.938995,290.391296
    C148.036392,302.753204 135.032303,315.016510 122.059784,327.309021
    C108.361351,340.289429 94.688164,353.293732 81.025360,366.310974
    C67.724976,378.982941 54.347004,391.575439 41.026691,404.227661
    C35.393108,409.578735 29.852203,415.155487 23.000000,421.083282
    C23.000000,416.386200 23.000000,412.966827 23.000000,409.547424
    C23.000000,390.384155 23.028831,371.220764 22.966875,352.057709
    C22.958235,349.385071 22.806087,346.882629 25.860817,345.637024
    C26.422762,345.407898 26.781080,344.699554 27.257223,344.236938
    C39.042534,332.786407 50.634495,321.127594 62.670696,309.946991
    C76.500648,297.100159 90.015732,283.931061 103.714691,270.953674
    C117.052139,258.318756 130.321793,245.613327 143.664749,232.986450
    C157.372131,220.014694 170.991653,206.952301 184.692245,193.976715
    C198.394485,180.999619 211.860474,167.757370 225.799728,155.058472
    C233.596008,147.955933 240.266205,139.647781 248.918457,133.453049
    C250.513351,132.311127 251.376251,131.541275 252.924713,133.336090
    C253.847717,134.405930 255.357681,134.947937 256.391571,135.946854
    C268.209137,147.364899 279.812622,159.010681 291.818848,170.225723
    C305.733337,183.223282 319.589691,196.270508 333.186554,209.603760
    C344.279602,220.481750 355.828552,230.893234 367.083160,241.608429
    C383.042542,256.802948 398.758148,272.257141 414.877075,287.279388
    C428.441742,299.921143 441.720703,312.862366 455.280945,325.493073
    C462.895081,332.585327 469.838898,340.397583 477.975128,346.905518
    C479.612152,348.214966 478.942719,349.569916 478.946747,350.845612
    C479.019745,374.007599 479.000000,397.169891 479.000000,420.397766
    C477.261749,420.845093 476.808319,419.224091 475.997284,418.448273
    C466.049744,408.932251 456.351776,399.148071 446.228973,389.824402
    C432.466248,377.148132 419.093506,364.071960 405.532349,351.190002
    C392.091797,338.422699 378.664124,325.641754 365.216888,312.882355
    C351.889893,300.237061 338.597046,287.555695 325.259186,274.923279
    C311.920288,262.289825 298.778870,249.434357 285.235291,237.039108
    C276.100983,228.679260 267.839478,219.416748 258.228943,211.549484
    C255.001038,208.907074 251.685379,208.983551 247.696442,209.098541
z"/>
<path fill="#000000" opacity="1.000000" stroke="none"
    d="
M192.737549,155.761597
    C176.411331,170.841705 160.815079,186.169998 145.031555,201.303360
    C130.330719,215.398636 115.557678,229.420715 100.841621,243.502655
    C85.283745,258.390137 69.885162,273.459106 54.089920,288.077881
    C44.640659,296.823303 36.253941,306.702850 25.968136,314.540863
    C25.250381,315.087830 24.837463,316.325256 23.403681,315.744049
    C22.536142,314.671356 23.029583,313.304596 23.027374,312.067474
    C22.989330,290.740967 23.045580,269.414093 22.939323,248.088013
    C22.926773,245.568909 23.568808,243.759506 25.385448,242.023468
    C42.667015,225.508713 59.685215,208.711197 77.237221,192.490662
    C82.950089,187.211151 88.452179,181.732498 94.093277,176.390747
    C111.180328,160.210388 128.166077,143.925552 145.096191,127.579681
    C158.547394,114.592697 172.253723,101.863358 185.724854,88.885918
    C202.071838,73.137970 218.638107,57.619053 234.924622,41.803452
    C239.406052,37.451588 244.153076,33.310566 248.566208,28.859221
    C250.283020,27.127541 251.243622,26.646559 253.269669,28.655342
    C263.280273,38.580700 273.354492,48.449596 283.646362,58.081841
    C299.613708,73.025803 315.297089,88.263062 331.125275,103.346992
    C337.833069,109.739410 344.345612,116.343498 351.146576,122.640244
    C367.316528,137.611313 383.048157,153.038940 398.952271,168.287247
    C413.653412,182.382233 428.564209,196.256775 443.106659,210.524811
    C453.985016,221.197876 465.263428,231.464081 476.405823,241.866302
    C478.182404,243.524857 479.093445,245.202240 479.077911,247.828445
    C478.942871,270.653473 479.000000,293.479614 479.000000,316.924286
    C476.018097,314.504822 473.174377,312.520233 470.709076,310.143158
    C457.802063,297.698181 445.146423,284.988953 432.107239,272.685516
    C415.959045,257.448578 399.991211,242.028931 383.980011,226.651047
    C369.531982,212.774521 354.993103,198.987915 340.503387,185.151459
    C324.688690,170.049728 308.764465,155.067444 293.156952,139.746002
    C282.190857,128.980896 270.779388,118.670341 259.615295,108.105591
    C253.895325,102.692696 248.281754,102.757530 242.469620,107.990005
    C232.477631,116.985512 223.323334,126.857887 213.382126,135.869141
    C206.372894,142.222672 199.833374,149.014404 192.737549,155.761597
z"/>
</svg>
