<svg width="116" height="138" viewBox="0 0 116 138" fill="none" xmlns="http://www.w3.org/2000/svg">
<path d="M35.3661 110.112C32.7915 110.112 30.4432 110.254 28.1232 110.084C23.7803 109.758 20.5549 106.273 20.3286 101.894C20.272 100.761 20.272 99.6132 20.272 98.4655C20.272 82.0295 20.272 65.6077 20.272 49.1716C20.272 48.3215 20.272 47.4713 20.272 46.4512C45.3959 46.4512 70.3925 46.4512 95.5305 46.4512C95.5871 46.8904 95.7144 47.358 95.7144 47.8256C95.7286 65.466 95.7427 83.1064 95.7144 100.761C95.7003 105.323 93.451 108.752 89.6032 109.787C87.8491 110.268 85.9393 110.183 84.1003 110.297C83.0393 110.368 81.9783 110.311 80.6344 110.311C80.6344 111.246 80.6344 112.011 80.6344 112.776C80.6344 118.274 80.7051 123.771 80.592 129.283C80.5071 133.364 77.7344 136.523 73.8725 137.331C70.0247 138.125 66.0637 136.254 64.5217 132.627C63.8993 131.168 63.673 129.453 63.6447 127.838C63.5315 122.836 63.6022 117.835 63.6022 112.833C63.6022 112.068 63.6022 111.303 63.6022 110.438C59.7969 110.438 56.2603 110.438 52.37 110.438C52.37 111.203 52.37 111.954 52.37 112.705C52.37 117.92 52.4408 123.134 52.3559 128.348C52.2569 134.767 47.1925 138.791 41.4066 137.133C37.7993 136.098 35.4793 132.825 35.4227 128.475C35.352 123.261 35.3803 118.047 35.352 112.833C35.3661 112.054 35.3661 111.288 35.3661 110.112Z" fill="white"/>
<path d="M19.791 43.1633C20.4983 29.2494 27.3593 19.572 39.2422 12.8559C37.6437 9.89454 36.0735 6.96156 34.4891 4.02858C34.1778 3.46182 33.711 2.92339 33.6261 2.3283C33.5413 1.74737 33.8383 1.10976 33.9657 0.486328C34.5457 0.74137 35.3803 0.840553 35.6349 1.29396C37.092 3.7452 38.4076 6.26728 39.7798 8.77519C40.3315 9.76702 40.8832 10.7588 41.4632 11.8074C52.4832 7.27328 63.4325 7.25911 74.5091 11.8074C76.1217 8.87437 77.7203 5.94139 79.3188 3.02258C79.5876 2.52666 79.7574 1.88906 80.1676 1.549C80.7193 1.09559 81.4549 0.88306 82.1198 0.557173C82.1622 1.25145 82.4593 2.07326 82.1905 2.61168C80.8183 5.34629 79.3047 8.02423 77.8476 10.7163C77.4798 11.3965 77.1403 12.0907 76.73 12.9125C84.0437 16.7948 89.5325 22.3349 93.0549 29.7311C95.0354 33.8968 95.9125 38.3459 96.0822 43.1633C70.7037 43.1633 45.4383 43.1633 19.791 43.1633ZM40.7276 29.4761C42.411 29.4336 43.8822 27.9317 43.8398 26.3022C43.7974 24.7011 42.1988 23.1709 40.6003 23.1851C38.9452 23.2134 37.5164 24.7295 37.5588 26.4298C37.5871 28.1584 39.0018 29.5186 40.7276 29.4761ZM78.4559 26.3872C78.47 24.7011 76.9988 23.1709 75.3578 23.1851C73.7452 23.1851 72.1749 24.7436 72.1608 26.3447C72.1466 27.9883 73.632 29.4619 75.3154 29.4761C77.0413 29.5044 78.4418 28.1159 78.4559 26.3872Z" fill="white"/>
<path d="M16.9333 71.0487C16.9333 76.7588 16.9474 82.4689 16.9333 88.1932C16.905 93.2515 13.4674 96.9921 8.78497 97.148C4.04595 97.3038 0.155703 93.6482 0.0991179 88.5191C-0.0140529 76.8155 -0.0281992 65.0977 0.0849715 53.38C0.127411 48.1091 3.70643 44.7935 8.75668 44.8644C13.4957 44.9352 16.905 48.5908 16.9191 53.6917C16.9474 59.4726 16.9333 65.2536 16.9333 71.0487Z" fill="white"/>
<path d="M99.0668 70.8925C99.0668 65.1823 99.0527 59.4581 99.0668 53.748C99.081 48.5621 102.405 44.9349 107.159 44.8498C112.379 44.7507 115.873 48.0379 115.929 53.4646C116.028 65.1115 116.028 76.7442 115.929 88.3912C115.887 93.5487 112.081 97.2184 107.342 97.1193C102.603 97.0201 99.1093 93.1944 99.0951 88.0228C99.0527 82.3268 99.0668 76.6026 99.0668 70.8925Z" fill="white"/>
</svg>
