<svg width="80" height="96" viewBox="0 0 80 96" fill="none" xmlns="http://www.w3.org/2000/svg">
<path d="M79.8755 70.1762C77.0255 78.5162 72.5755 85.8562 66.1755 91.9162C61.7455 96.1162 56.6055 95.9562 51.3055 93.8062C47.7855 92.3862 44.2055 91.1362 40.3755 91.7162C37.7755 92.1162 35.2455 92.9962 32.7055 93.7062C31.4255 94.0662 30.1955 94.5662 28.9155 94.9262C24.8655 96.0862 21.2855 95.0962 18.1955 92.3462C12.5955 87.3562 8.4955 81.2562 5.4055 74.4762C1.8055 66.5762 -0.264497 58.3162 0.185503 49.5662C0.575503 41.8362 2.9955 34.8562 8.8955 29.5662C15.9155 23.2562 23.9455 21.5862 32.8655 25.0862C34.3555 25.6662 35.9055 26.1062 37.3855 26.7262C39.6855 27.6962 41.8855 27.3662 44.1755 26.6062C47.8155 25.3862 51.4455 23.8362 55.2055 23.3662C64.0755 22.2562 71.6155 25.0762 77.4155 32.4662C70.0855 37.0362 66.2855 43.3762 66.8955 52.0962C67.4955 60.7862 72.3855 66.3462 79.8755 70.1762Z" fill="white"/>
<path d="M59.8155 0.607083C60.2655 3.15708 59.9455 5.63708 59.1255 7.94708C56.7155 14.8271 52.3055 19.9071 45.2855 22.3871C44.0555 22.8271 42.6855 22.8671 41.3755 23.0571C40.4055 23.1971 39.9855 22.8171 39.9755 21.7671C39.9455 16.7771 41.7055 12.4371 44.7755 8.61708C48.4455 4.05708 53.2955 1.50708 59.0455 0.607083C59.2655 0.577083 59.4955 0.607083 59.8155 0.607083Z" fill="white"/>
</svg>
