<svg version="1.1" id="Layer_1" xmlns="http://www.w3.org/2000/svg" xmlns:xlink="http://www.w3.org/1999/xlink" x="0px" y="0px"
     width="100%" viewBox="0 0 178 178" enable-background="new 0 0 178 178" xml:space="preserve">

<path fill="#FBFBFB" opacity="1.000000" stroke="none"
    d="
M130.535355,0.999999
    C130.830460,1.243743 130.505981,1.696465 130.513199,1.701804
    C136.615051,6.225584 133.837799,10.637026 130.426224,15.113300
    C128.886856,17.133093 127.574425,19.126980 129.879425,21.737368
    C130.470642,22.406914 129.822845,24.502739 129.290558,25.749628
    C128.595581,27.377577 127.449120,28.812780 126.858490,29.754448
    C134.066223,37.878464 141.483551,45.270454 147.602966,53.614326
    C150.038513,56.935211 150.851822,62.541264 150.243332,66.798187
    C148.250504,80.739273 145.235580,94.533012 142.672455,108.394287
    C141.241577,116.132462 140.431885,124.029633 138.372391,131.590988
    C137.121765,136.182678 136.035950,140.553864 136.476364,145.303284
    C137.053299,151.524887 134.176544,155.262421 128.547150,158.132523
    C116.014008,164.522491 103.825096,171.587601 91.747948,178.688782
    C90.611107,179.000000 89.222221,179.000000 87.459526,178.652634
    C84.657898,174.515060 77.865509,173.328262 79.497063,167.629440
    C74.449707,163.307510 69.464935,159.039169 64.156532,154.493698
    C61.641773,163.105072 59.320889,171.052536 57.000000,179.000000
    C53.969406,179.000000 50.938812,179.000000 47.454109,179.000000
    C44.681385,176.596893 42.461082,174.087692 40.015583,171.821503
    C37.721844,169.695938 35.009678,168.008194 32.801716,165.806763
    C28.679363,161.696609 27.876381,157.359619 31.765892,151.314880
    C38.263462,141.216888 45.487999,131.573334 52.686729,121.948051
    C54.829769,119.082619 57.300629,116.888741 58.073555,112.901573
    C58.820293,109.049522 61.547005,105.581291 63.634830,101.492302
    C63.434673,101.339340 62.678955,100.828377 61.998917,100.231239
    C57.876633,96.611397 58.142681,93.306976 61.706715,88.608650
    C67.781387,80.600662 73.462845,72.290428 79.198235,64.029922
    C88.980972,49.940151 98.710281,35.812901 108.380150,21.645496
    C110.116165,19.102047 111.201996,16.090450 113.079247,13.677108
    C114.167435,12.278156 116.235619,11.641516 118.557236,10.243711
    C118.236900,7.832051 117.832939,4.790817 117.214493,1.374792
    C121.356903,1.000000 125.713806,1.000000 130.535355,0.999999
M90.633400,82.856667
    C89.107536,85.158707 87.581665,87.460754 86.738968,88.732124
    C87.892143,91.572838 89.370590,93.534264 89.360298,95.487854
    C89.321083,102.929977 89.185593,110.411812 88.372871,117.800354
    C87.105125,129.325470 79.575798,133.784805 70.124771,128.589417
    C69.032890,132.791351 67.971977,136.874100 67.265045,139.594604
    C75.030701,147.817963 82.036682,155.236862 89.286919,162.914413
    C99.410919,157.270142 110.002228,151.463058 120.464249,145.431717
    C122.113983,144.480637 123.998390,142.689514 124.360748,140.986099
    C125.451401,135.859161 125.635323,130.546967 126.546753,125.372879
    C129.677673,107.598946 133.022797,89.862785 136.165070,72.090805
    C137.143204,66.558708 139.745621,61.025982 134.311920,55.810852
    C129.508514,51.200661 125.581161,45.677692 121.112610,40.374470
    C115.432350,47.836884 109.902985,54.426060 105.190948,61.555443
    C102.545258,65.558411 97.200584,68.339203 98.300095,74.482254
    C98.398880,75.034149 97.077629,76.420998 96.393883,76.436272
    C92.465416,76.524063 92.428329,79.934662 90.633400,82.856667
z"/>


</svg>
