<svg version="1.1" id="Layer_1" xmlns="http://www.w3.org/2000/svg" xmlns:xlink="http://www.w3.org/1999/xlink" x="0px" y="0px"
     width="100%" viewBox="0 0 512 512" enable-background="new 0 0 512 512" xml:space="preserve">
<path fill="#white" opacity="1.000000" stroke="none"
    d="
M279.000000,513.000000
    C186.022568,513.000000 93.545135,513.000000 1.033850,513.000000
    C1.033850,342.397552 1.033850,171.795074 1.033850,1.096304
    C171.560776,1.096304 342.121643,1.096304 512.841248,1.096304
    C512.841248,171.666550 512.841248,342.333252 512.841248,513.000000
    C435.128387,513.000000 357.314178,513.000000 279.000000,513.000000
M368.495972,144.998016
    C365.324554,148.560883 362.153168,152.123749 358.710999,155.990814
    C362.701874,159.626556 366.566193,163.147003 370.357605,166.601028
    C382.169434,153.964615 394.095032,141.728134 405.378021,128.925323
    C411.409943,122.080925 419.518066,116.842346 421.770172,106.825172
    C425.015533,92.390114 429.126343,78.149620 433.032196,63.196838
    C419.916077,68.147614 407.575378,73.468666 394.803253,77.381226
    C386.980103,79.777725 381.234589,84.049088 376.348175,90.140694
    C374.696106,92.200287 373.014679,94.240448 371.264160,96.216393
    C359.847931,109.102684 348.381378,121.944473 336.985321,134.848511
    C325.713593,147.611771 314.526398,160.449661 303.262787,173.220093
    C294.503052,183.151642 285.652863,193.003464 276.896942,202.938309
    C265.744781,215.592010 254.679535,228.322342 243.516937,240.966751
    C232.125031,253.870895 220.639633,266.692474 209.233734,279.584320
    C197.618210,292.713104 186.057556,305.890381 174.457367,319.032776
    C168.320923,325.985016 162.108994,332.871185 156.018158,339.862976
    C153.640533,342.592285 152.742950,345.341766 155.899628,348.458191
    C160.963577,353.457581 162.494171,353.575317 167.482651,347.985840
    C180.704865,333.170715 193.819107,318.259033 207.072998,303.472382
    C218.020477,291.258820 229.156616,279.214447 240.117249,267.012512
    C252.833221,252.856430 265.413361,238.578339 278.119019,224.412933
    C288.737335,212.574631 299.482361,200.850037 310.115570,189.025009
    C323.395325,174.256866 336.606415,159.427002 349.869049,144.643417
    C360.044098,133.301483 370.530457,122.223465 380.339355,110.574211
    C385.894958,103.976242 392.345947,99.686386 400.944855,97.946419
    C401.768402,104.614265 399.605377,110.321930 395.611206,114.976318
    C386.986176,125.026909 377.897430,134.679504 368.495972,144.998016
M385.499176,263.999176
    C363.873840,285.611603 342.248535,307.224030 320.607513,328.852142
    C326.445984,334.237274 331.845032,339.217072 336.561676,343.567474
    C369.186707,310.947998 401.409241,278.730957 433.960663,246.185059
    C406.450775,219.142487 378.609222,191.773880 350.716522,164.355011
    C345.545105,170.030685 340.576019,175.484299 335.471252,181.086853
    C358.051483,203.203766 380.227753,224.925003 402.755890,246.990875
    C396.869171,252.790314 391.434174,258.144745 385.499176,263.999176
M151.003204,316.511810
    C152.384583,318.298492 153.765961,320.085144 155.060593,321.759583
    C161.141800,315.381653 166.196381,310.080475 171.364151,304.660522
    C151.310928,285.079193 131.834900,266.061462 112.316833,247.002686
    C138.891235,220.000885 164.984222,193.488235 191.133118,166.918793
    C185.983063,162.093765 180.461624,156.920807 176.947617,153.628571
    C144.551712,184.859680 112.499092,215.759857 80.218025,246.880264
    C104.042488,270.312134 127.272110,293.158966 151.003204,316.511810
M108.932167,154.606323
    C114.718597,148.039978 120.505020,141.473648 127.577576,133.447815
    C134.968903,141.607407 142.063370,149.439270 149.240585,157.362503
    C154.705429,151.458252 159.719101,146.041443 164.582352,140.787155
    C151.294968,127.772179 138.306778,115.050262 125.126083,102.139801
    C117.975624,110.159401 111.508492,117.412613 105.461098,124.195076
    C96.172661,114.915382 87.311707,106.062767 78.476471,97.235847
    C80.469711,95.488045 82.895744,93.360756 85.791260,90.821785
    C68.170494,84.311378 51.324734,78.087318 33.867474,71.637321
    C39.591064,88.958008 45.052822,105.486336 50.633938,122.375870
    C54.303421,119.315460 57.660694,116.515442 61.768639,113.089355
    C76.397293,128.205643 90.803696,143.092255 105.276062,158.047058
    C106.698807,156.688293 107.533295,155.891342 108.932167,154.606323
M465.374725,420.024109
    C470.042267,421.764130 474.709778,423.504150 480.076782,425.504944
    C474.337830,408.085083 468.886780,391.539124 463.317780,374.635254
    C459.666473,377.806549 456.479492,380.574585 453.205170,383.418488
    C438.005402,368.634094 423.150482,354.185120 408.025818,339.473785
    C401.077057,347.232269 394.408905,354.677429 387.806488,362.049194
    C380.207031,354.809723 372.920715,347.868500 366.624573,341.870605
    C360.817352,347.003784 355.354126,351.832855 351.605835,355.146057
    C363.878540,368.804016 375.827606,382.101776 388.114624,395.775635
    C395.663757,387.357574 402.263763,379.997925 408.314453,373.250793
    C417.393158,382.332153 426.246399,391.187958 435.242432,400.186646
    C433.673553,401.662201 431.233673,403.956940 428.632935,406.402985
    C441.009399,411.071838 452.793732,415.517334 465.374725,420.024109
M261.663269,261.194000
    C250.236755,273.834259 238.848877,286.509735 227.374725,299.106628
    C209.762344,318.442444 192.150360,337.779449 174.383865,356.973145
    C171.500717,360.087891 171.307114,362.590332 174.267227,365.390472
    C179.116623,369.977753 180.461197,370.209045 184.090302,366.366211
    C192.163116,357.818024 200.042572,349.087585 208.050201,340.477356
    C230.622726,316.206116 253.205124,291.944031 275.812897,267.705658
    C291.870972,250.489426 307.982910,233.323425 324.056885,216.122025
    C328.617615,211.241394 333.129669,206.315277 336.777161,202.369446
    C333.191681,198.151367 329.929932,194.314117 326.656616,190.463272
    C304.950073,214.089813 283.551178,237.381485 261.663269,261.194000
M129.397919,351.005676
    C132.043304,353.529724 134.770508,355.976166 137.283875,358.625458
    C138.032349,359.414398 138.869995,361.198517 138.496292,361.802673
    C135.308914,366.955597 135.406418,372.392365 137.059479,377.816620
    C138.836151,383.646454 140.884827,389.418488 143.247665,395.033600
    C144.368164,397.696381 146.445724,397.509399 148.908798,395.734070
    C153.360382,392.525513 151.900055,388.418457 150.980957,384.355743
    C156.678391,383.881317 162.184021,381.191681 167.134537,385.637482
    C169.713120,387.953186 172.221100,390.380096 174.999924,392.433411
    C180.732346,396.669067 182.944794,402.120117 182.091431,409.200867
    C181.703629,412.418610 182.233154,415.770081 182.543549,419.042236
    C182.852112,422.295258 185.231094,423.707886 187.936310,422.792236
    C189.326172,422.321808 190.615723,419.845093 190.892548,418.106567
    C191.844131,412.130432 192.525330,406.092834 192.920166,400.053192
    C193.170700,396.220581 193.614960,392.531525 189.743927,389.293335
    C179.980972,381.126465 170.748184,372.326263 161.293503,363.790314
    C150.980453,354.479340 140.722748,345.104492 130.250351,335.976135
    C129.009293,334.894348 126.484749,334.656860 124.698608,334.938324
    C117.316490,336.101685 109.954414,337.462036 102.672638,339.132294
    C101.249069,339.458832 99.358566,341.384308 99.195602,342.752411
    C98.925598,345.019257 99.905304,347.182678 103.175209,347.054443
    C108.162369,346.858887 113.344254,347.825714 118.107605,346.775574
    C123.055298,345.684784 125.762009,347.930969 129.397919,351.005676
M202.999420,211.500610
    C210.129715,218.682526 217.259995,225.864456 224.258545,232.913681
    C229.478622,227.318207 234.537384,221.895645 239.115265,216.988541
    C226.497925,204.392242 213.967545,191.882751 201.848907,179.784317
    C196.968414,184.629745 191.751251,189.809433 186.487381,195.035477
    C191.671768,200.204636 197.085617,205.602600 202.999420,211.500610
M321.998840,306.512024
    C323.369781,305.211548 324.740723,303.911072 326.532166,302.211731
    C316.049744,292.198517 305.999786,282.598358 295.745697,272.803253
    C291.114746,277.632690 286.084320,282.878723 280.043671,289.178253
    C290.438507,298.305908 300.883514,307.477631 311.634003,316.917603
    C314.032898,314.507568 317.765381,310.757690 321.998840,306.512024
M92.615059,448.060883
    C103.799370,452.789856 110.530609,451.884796 116.288712,444.504730
    C105.593109,434.821594 94.871330,425.114777 84.149544,415.407959
    C83.519043,415.494995 82.888535,415.582001 82.258034,415.669006
    C81.194427,419.967163 78.754341,424.470978 79.359238,428.519836
    C80.548782,436.482208 83.806496,443.941803 92.615059,448.060883
M115.990303,395.692322
    C117.752808,402.698761 119.380829,409.744324 121.397675,416.676758
    C121.775558,417.975647 123.708839,418.822021 124.924347,419.877197
    C125.906876,417.948547 127.685349,416.023804 127.694923,414.090332
    C127.711380,410.764984 126.813965,407.384949 125.961273,404.116241
    C124.357910,397.969879 122.513168,391.886475 120.768791,385.776917
    C120.145592,385.796875 119.522385,385.816833 118.899178,385.836792
    C117.929710,388.830322 116.960243,391.823853 115.990303,395.692322
M111.009995,404.569763
    C110.275078,402.674316 109.540154,400.778900 108.335434,397.671783
    C106.822151,400.697296 105.317566,402.448944 105.103485,404.346222
    C104.053360,413.652618 106.063019,422.461334 110.359131,430.738983
    C110.831017,431.648254 112.084816,432.973969 112.660080,432.831421
    C113.765671,432.557526 115.056221,431.551086 115.513374,430.514709
    C116.079597,429.231018 116.245972,427.527710 115.944351,426.145477
    C114.427895,419.196045 112.702454,412.292236 111.009995,404.569763
M135.358429,408.740967
    C139.583878,404.984467 138.085892,400.478729 137.004089,396.040436
    C135.226318,388.746704 133.425308,381.458649 131.478378,373.534454
    C124.321045,380.549561 126.448021,398.583710 135.358429,408.740967
M99.677559,412.131592
    C99.207626,411.382965 98.737701,410.634308 98.244003,409.847809
    C92.926575,414.456421 94.084404,419.186432 101.237320,421.724884
    C100.800949,418.646332 100.393913,415.774811 99.677559,412.131592
z"/>
<path fill="#FDFDFD" opacity="1.000000" stroke="none"
    d="
M368.747192,144.746460
    C377.897430,134.679504 386.986176,125.026909 395.611206,114.976318
    C399.605377,110.321930 401.768402,104.614265 400.944855,97.946419
    C392.345947,99.686386 385.894958,103.976242 380.339355,110.574211
    C370.530457,122.223465 360.044098,133.301483 349.869049,144.643417
    C336.606415,159.427002 323.395325,174.256866 310.115570,189.025009
    C299.482361,200.850037 288.737335,212.574631 278.119019,224.412933
    C265.413361,238.578339 252.833221,252.856430 240.117249,267.012512
    C229.156616,279.214447 218.020477,291.258820 207.072998,303.472382
    C193.819107,318.259033 180.704865,333.170715 167.482651,347.985840
    C162.494171,353.575317 160.963577,353.457581 155.899628,348.458191
    C152.742950,345.341766 153.640533,342.592285 156.018158,339.862976
    C162.108994,332.871185 168.320923,325.985016 174.457367,319.032776
    C186.057556,305.890381 197.618210,292.713104 209.233734,279.584320
    C220.639633,266.692474 232.125031,253.870895 243.516937,240.966751
    C254.679535,228.322342 265.744781,215.592010 276.896942,202.938309
    C285.652863,193.003464 294.503052,183.151642 303.262787,173.220093
    C314.526398,160.449661 325.713593,147.611771 336.985321,134.848511
    C348.381378,121.944473 359.847931,109.102684 371.264160,96.216393
    C373.014679,94.240448 374.696106,92.200287 376.348175,90.140694
    C381.234589,84.049088 386.980103,79.777725 394.803253,77.381226
    C407.575378,73.468666 419.916077,68.147614 433.032196,63.196838
    C429.126343,78.149620 425.015533,92.390114 421.770172,106.825172
    C419.518066,116.842346 411.409943,122.080925 405.378021,128.925323
    C394.095032,141.728134 382.169434,153.964615 370.357605,166.601028
    C366.566193,163.147003 362.701874,159.626556 358.710999,155.990814
    C362.153168,152.123749 365.324554,148.560883 368.747192,144.746460
z"/>
<path fill="#FEFEFE" opacity="1.000000" stroke="none"
    d="
M385.749176,263.749176
    C391.434174,258.144745 396.869171,252.790314 402.755890,246.990875
    C380.227753,224.925003 358.051483,203.203766 335.471252,181.086853
    C340.576019,175.484299 345.545105,170.030685 350.716522,164.355011
    C378.609222,191.773880 406.450775,219.142487 433.960663,246.185059
    C401.409241,278.730957 369.186707,310.947998 336.561676,343.567474
    C331.845032,339.217072 326.445984,334.237274 320.607513,328.852142
    C342.248535,307.224030 363.873840,285.611603 385.749176,263.749176
z"/>
<path fill="#FDFDFD" opacity="1.000000" stroke="none"
    d="
M150.752472,316.258789
    C127.272110,293.158966 104.042488,270.312134 80.218025,246.880264
    C112.499092,215.759857 144.551712,184.859680 176.947617,153.628571
    C180.461624,156.920807 185.983063,162.093765 191.133118,166.918793
    C164.984222,193.488235 138.891235,220.000885 112.316833,247.002686
    C131.834900,266.061462 151.310928,285.079193 171.364151,304.660522
    C166.196381,310.080475 161.141800,315.381653 155.060593,321.759583
    C153.765961,320.085144 152.384583,318.298492 150.752472,316.258789
z"/>
<path fill="#FDFDFD" opacity="1.000000" stroke="none"
    d="
M108.649979,154.850342
    C107.533295,155.891342 106.698807,156.688293 105.276062,158.047058
    C90.803696,143.092255 76.397293,128.205643 61.768639,113.089355
    C57.660694,116.515442 54.303421,119.315460 50.633938,122.375870
    C45.052822,105.486336 39.591064,88.958008 33.867474,71.637321
    C51.324734,78.087318 68.170494,84.311378 85.791260,90.821785
    C82.895744,93.360756 80.469711,95.488045 78.476471,97.235847
    C87.311707,106.062767 96.172661,114.915382 105.461098,124.195076
    C111.508492,117.412613 117.975624,110.159401 125.126083,102.139801
    C138.306778,115.050262 151.294968,127.772179 164.582352,140.787155
    C159.719101,146.041443 154.705429,151.458252 149.240585,157.362503
    C142.063370,149.439270 134.968903,141.607407 127.577576,133.447815
    C120.505020,141.473648 114.718597,148.039978 108.649979,154.850342
z"/>
<path fill="#FDFDFD" opacity="1.000000" stroke="none"
    d="
M464.976379,419.993469
    C452.793732,415.517334 441.009399,411.071838 428.632935,406.402985
    C431.233673,403.956940 433.673553,401.662201 435.242432,400.186646
    C426.246399,391.187958 417.393158,382.332153 408.314453,373.250793
    C402.263763,379.997925 395.663757,387.357574 388.114624,395.775635
    C375.827606,382.101776 363.878540,368.804016 351.605835,355.146057
    C355.354126,351.832855 360.817352,347.003784 366.624573,341.870605
    C372.920715,347.868500 380.207031,354.809723 387.806488,362.049194
    C394.408905,354.677429 401.077057,347.232269 408.025818,339.473785
    C423.150482,354.185120 438.005402,368.634094 453.205170,383.418488
    C456.479492,380.574585 459.666473,377.806549 463.317780,374.635254
    C468.886780,391.539124 474.337830,408.085083 480.076782,425.504944
    C474.709778,423.504150 470.042267,421.764130 464.976379,419.993469
z"/>
<path fill="#FDFDFD" opacity="1.000000" stroke="none"
    d="
M261.907776,260.933594
    C283.551178,237.381485 304.950073,214.089813 326.656616,190.463272
    C329.929932,194.314117 333.191681,198.151367 336.777161,202.369446
    C333.129669,206.315277 328.617615,211.241394 324.056885,216.122025
    C307.982910,233.323425 291.870972,250.489426 275.812897,267.705658
    C253.205124,291.944031 230.622726,316.206116 208.050201,340.477356
    C200.042572,349.087585 192.163116,357.818024 184.090302,366.366211
    C180.461197,370.209045 179.116623,369.977753 174.267227,365.390472
    C171.307114,362.590332 171.500717,360.087891 174.383865,356.973145
    C192.150360,337.779449 209.762344,318.442444 227.374725,299.106628
    C238.848877,286.509735 250.236755,273.834259 261.907776,260.933594
z"/>
<path fill="#FDFDFD" opacity="1.000000" stroke="none"
    d="
M129.054871,350.891846
    C125.762009,347.930969 123.055298,345.684784 118.107605,346.775574
    C113.344254,347.825714 108.162369,346.858887 103.175209,347.054443
    C99.905304,347.182678 98.925598,345.019257 99.195602,342.752411
    C99.358566,341.384308 101.249069,339.458832 102.672638,339.132294
    C109.954414,337.462036 117.316490,336.101685 124.698608,334.938324
    C126.484749,334.656860 129.009293,334.894348 130.250351,335.976135
    C140.722748,345.104492 150.980453,354.479340 161.293503,363.790314
    C170.748184,372.326263 179.980972,381.126465 189.743927,389.293335
    C193.614960,392.531525 193.170700,396.220581 192.920166,400.053192
    C192.525330,406.092834 191.844131,412.130432 190.892548,418.106567
    C190.615723,419.845093 189.326172,422.321808 187.936310,422.792236
    C185.231094,423.707886 182.852112,422.295258 182.543549,419.042236
    C182.233154,415.770081 181.703629,412.418610 182.091431,409.200867
    C182.944794,402.120117 180.732346,396.669067 174.999924,392.433411
    C172.221100,390.380096 169.713120,387.953186 167.134537,385.637482
    C162.184021,381.191681 156.678391,383.881317 150.980957,384.355743
    C151.900055,388.418457 153.360382,392.525513 148.908798,395.734070
    C146.445724,397.509399 144.368164,397.696381 143.247665,395.033600
    C140.884827,389.418488 138.836151,383.646454 137.059479,377.816620
    C135.406418,372.392365 135.308914,366.955597 138.496292,361.802673
    C138.869995,361.198517 138.032349,359.414398 137.283875,358.625458
    C134.770508,355.976166 132.043304,353.529724 129.054871,350.891846
z"/>
<path fill="#FFFFFF" opacity="1.000000" stroke="none"
    d="
M202.749451,211.250580
    C197.085617,205.602600 191.671768,200.204636 186.487381,195.035477
    C191.751251,189.809433 196.968414,184.629745 201.848907,179.784317
    C213.967545,191.882751 226.497925,204.392242 239.115265,216.988541
    C234.537384,221.895645 229.478622,227.318207 224.258545,232.913681
    C217.259995,225.864456 210.129715,218.682526 202.749451,211.250580
z"/>
<path fill="#FCFCFC" opacity="1.000000" stroke="none"
    d="
M321.748352,306.759918
    C317.765381,310.757690 314.032898,314.507568 311.634003,316.917603
    C300.883514,307.477631 290.438507,298.305908 280.043671,289.178253
    C286.084320,282.878723 291.114746,277.632690 295.745697,272.803253
    C305.999786,282.598358 316.049744,292.198517 326.532166,302.211731
    C324.740723,303.911072 323.369781,305.211548 321.748352,306.759918
z"/>
<path fill="#FDFDFD" opacity="1.000000" stroke="none"
    d="
M92.246155,447.951904
    C83.806496,443.941803 80.548782,436.482208 79.359238,428.519836
    C78.754341,424.470978 81.194427,419.967163 82.258034,415.669006
    C82.888535,415.582001 83.519043,415.494995 84.149544,415.407959
    C94.871330,425.114777 105.593109,434.821594 116.288712,444.504730
    C110.530609,451.884796 103.799370,452.789856 92.246155,447.951904
z"/>
<path fill="#FAFAFA" opacity="1.000000" stroke="none"
    d="
M115.990540,395.254852
    C116.960243,391.823853 117.929710,388.830322 118.899178,385.836792
    C119.522385,385.816833 120.145592,385.796875 120.768791,385.776917
    C122.513168,391.886475 124.357910,397.969879 125.961273,404.116241
    C126.813965,407.384949 127.711380,410.764984 127.694923,414.090332
    C127.685349,416.023804 125.906876,417.948547 124.924347,419.877197
    C123.708839,418.822021 121.775558,417.975647 121.397675,416.676758
    C119.380829,409.744324 117.752808,402.698761 115.990540,395.254852
z"/>
<path fill="#FBFBFB" opacity="1.000000" stroke="none"
    d="
M111.030197,404.971069
    C112.702454,412.292236 114.427895,419.196045 115.944351,426.145477
    C116.245972,427.527710 116.079597,429.231018 115.513374,430.514709
    C115.056221,431.551086 113.765671,432.557526 112.660080,432.831421
    C112.084816,432.973969 110.831017,431.648254 110.359131,430.738983
    C106.063019,422.461334 104.053360,413.652618 105.103485,404.346222
    C105.317566,402.448944 106.822151,400.697296 108.335434,397.671783
    C109.540154,400.778900 110.275078,402.674316 111.030197,404.971069
z"/>
<path fill="#FCFCFC" opacity="1.000000" stroke="none"
    d="
M134.982559,408.836731
    C126.448021,398.583710 124.321045,380.549561 131.478378,373.534454
    C133.425308,381.458649 135.226318,388.746704 137.004089,396.040436
    C138.085892,400.478729 139.583878,404.984467 134.982559,408.836731
z"/>
<path fill="#FAFAFA" opacity="1.000000" stroke="none"
    d="
M99.832222,412.517456
    C100.393913,415.774811 100.800949,418.646332 101.237320,421.724884
    C94.084404,419.186432 92.926575,414.456421 98.244003,409.847809
    C98.737701,410.634308 99.207626,411.382965 99.832222,412.517456
z"/>
</svg>
