<svg width="88" height="86" viewBox="0 0 88 86" fill="none" xmlns="http://www.w3.org/2000/svg">
<g clip-path="url(#clip0_891_8282)">
<path d="M87.4715 38.7514C86.8762 38.7514 86.366 38.7514 85.8557 38.7514C72.8723 38.7514 59.8889 38.723 46.9056 38.7798C45.4315 38.7798 45.1196 38.3536 45.1196 36.9611C45.1763 27.3556 45.1763 17.7501 45.1196 8.1446C45.1196 6.95102 45.3748 6.43949 46.7071 6.24056C59.8322 4.42177 72.9574 2.4893 86.0825 0.613674C86.5077 0.556837 86.9046 0.556837 87.4715 0.5C87.4715 13.2315 87.4715 25.8778 87.4715 38.7514Z" fill="white"/>
<path d="M87.4999 47.1925C87.4999 60.0093 87.4999 72.6555 87.4999 85.5007C84.6651 85.1029 81.972 84.7334 79.2789 84.3356C69.4989 82.9431 59.7472 81.5506 49.9671 80.158C49.5986 80.1012 49.2301 80.016 48.8615 79.9591C45.1763 79.3623 45.1763 79.3623 45.1763 75.5542C45.1763 66.6592 45.2046 57.7358 45.1479 48.8408C45.1479 47.5903 45.4314 47.1641 46.7921 47.1641C59.8889 47.2209 72.9573 47.1925 86.0541 47.1925C86.4793 47.1925 86.9329 47.1925 87.4999 47.1925Z" fill="white"/>
<path d="M36.6437 8.23047C36.6437 18.4327 36.6437 28.4645 36.6437 38.6099C24.6525 38.6099 12.6896 38.6099 0.585044 38.6099C0.556696 38.0984 0.528348 37.6153 0.528348 37.1038C0.528348 29.7149 0.556696 22.3261 0.5 14.9373C0.5 13.6584 0.896872 13.2606 2.14418 13.09C13.1716 11.5554 24.1989 9.93558 35.2263 8.37256C35.6515 8.31572 36.0484 8.28731 36.6437 8.23047Z" fill="white"/>
<path d="M0.585072 47.2773C12.633 47.2773 24.5391 47.2773 36.587 47.2773C36.587 57.3944 36.587 67.483 36.587 77.7421C34.1774 77.401 31.8246 77.0884 29.5 76.7474C20.3436 75.4402 11.1872 74.0761 2.03082 72.8257C0.840204 72.6551 0.47168 72.2573 0.47168 71.0353C0.528376 63.618 0.500028 56.1724 0.500028 48.7551C0.528376 48.272 0.585072 47.8173 0.585072 47.2773Z" fill="white"/>
</g>
<defs>
<clipPath id="clip0_891_8282">
<rect width="87" height="85" fill="white" transform="translate(0.5 0.5)"/>
</clipPath>
</defs>
</svg>
