<svg width="296" height="598" viewBox="0 0 296 598" fill="none" xmlns="http://www.w3.org/2000/svg">
<path fill-rule="evenodd" clip-rule="evenodd" d="M66.7625 73.5059C71.1616 86.8691 79.5285 90.2315 87.6367 91.0936V108.854L60.8108 110.923C52.7889 112.561 50.46 105.06 46.2334 80.6617C46.3197 80.6617 66.6763 73.7645 66.7625 73.5059Z" fill="#363636"/>
<path fill-rule="evenodd" clip-rule="evenodd" d="M56.3257 116.7C59.5172 140.15 69.7817 142.305 76.596 143.944L76.3373 147.047L68.9192 148.513L69.4367 158.083L122.226 146.616L109.287 122.476C114.118 106.009 114.635 90.7493 102.387 70.4027L73.232 67.5576C80.4776 88.0766 88.8445 83.8521 95.6588 84.9729L93.5024 113.855L56.3257 116.7Z" fill="#363636"/>
<path fill-rule="evenodd" clip-rule="evenodd" d="M109.805 169.722L105.751 155.669L79.9599 159.462L79.4424 175.498C93.8473 178.085 102.473 174.55 109.805 169.722Z" fill="#363636"/>
<path fill-rule="evenodd" clip-rule="evenodd" d="M117.913 152.737L110.495 155.151L113.083 167.135L121.708 160.928L117.913 152.737Z" fill="#363636"/>
<path fill-rule="evenodd" clip-rule="evenodd" d="M129.644 68.5057L129.903 81.9552L197.873 72.5578L206.499 57.2979L129.644 68.5057Z" fill="#363636"/>
<path fill-rule="evenodd" clip-rule="evenodd" d="M130.765 88.5934L194.768 79.2822L187.177 91.4385L134.819 98.8529L130.765 88.5934Z" fill="#363636"/>
<path fill-rule="evenodd" clip-rule="evenodd" d="M113.859 121.786L131.628 139.201L144.049 116.009C132.577 111.44 117.05 79.0235 130.42 52.7281L111.271 36.4336L101.697 58.7631C122.053 74.7128 121.277 113.854 113.859 121.786Z" fill="#363636"/>
<path fill-rule="evenodd" clip-rule="evenodd" d="M168.459 547.426C226.165 565.876 262.479 563.204 304.4 563.117L303.279 580.964C247.212 580.447 199.512 582.085 134.819 550.616C149.224 536.046 158.454 544.754 168.459 547.426Z" fill="#363636"/>
<path fill-rule="evenodd" clip-rule="evenodd" d="M148.965 524.148L148.448 532.253C210.466 562.083 261.358 558.289 306.125 558.807L307.764 543.633C252.732 547.426 209.949 548.03 148.965 524.148Z" fill="#363636"/>
<path fill-rule="evenodd" clip-rule="evenodd" d="M154.227 216.536C138.529 212.743 152.675 202.742 158.023 201.276L137.925 184.292C127.229 185.068 107.907 188.603 105.492 213.95L136.717 239.211C145.17 241.366 148.966 238.09 149.828 234.9L154.227 216.536Z" fill="#363636"/>
<path fill-rule="evenodd" clip-rule="evenodd" d="M142.927 184.55C141.72 179.291 145.343 175.757 148.361 175.239L172.513 188.344L161.041 198.603L142.927 184.55Z" fill="#363636"/>
<path fill-rule="evenodd" clip-rule="evenodd" d="M193.388 142.478L197.183 154.634C191.318 153.685 141.03 161.359 156.47 117.217C164.061 143.943 181.053 141.615 193.388 142.478Z" fill="#363636"/>
<path fill-rule="evenodd" clip-rule="evenodd" d="M40.7992 82.6447L46.5785 109.802L40.7992 116.268L19.5801 102.215L32.0011 79.541L40.7992 82.6447Z" fill="#363636"/>
<path fill-rule="evenodd" clip-rule="evenodd" d="M78.2347 179.722C96.9524 187.826 127.229 172.566 130.765 159.893L144.652 162.738L139.995 177.308C128.867 179.463 104.888 181.877 97.9012 216.449C97.9012 216.449 68.6602 208.173 68.4014 208.086C67.9701 208.173 78.2347 179.722 78.2347 179.722Z" fill="#363636"/>
<path fill-rule="evenodd" clip-rule="evenodd" d="M261.445 163.514C252.474 151.358 242.641 138.943 216.418 138.253C216.418 138.253 217.454 148.254 217.799 148.254C236.775 148.512 246.522 153.772 255.062 164.29L261.445 163.514Z" fill="#363636"/>
<path fill-rule="evenodd" clip-rule="evenodd" d="M306.125 347.409L302.503 363.876L283.699 333.96L306.125 347.409Z" fill="#363636"/>
<path d="M238.069 0.999852C246.867 8.84536 245.314 17.6392 241.346 21.4327C242.726 20.5705 244.365 20.1394 246.177 20.1394C251.525 20.1394 255.924 24.7088 255.924 30.3127C255.924 35.9167 251.525 40.486 246.177 40.486C241.95 40.486 237.724 38.4169 236.43 34.5373L235.481 38.1582L264.549 58.4186L265.067 58.7635L268.172 54.1941C267.655 54.3666 267.051 54.539 266.533 54.6252C260.927 55.746 255.492 52.0388 254.371 46.4348C253.25 40.8309 256.959 35.3994 262.565 34.2786C268.086 33.244 273.865 39.0204 275.073 44.4519C274.986 43.8484 275.504 39.8825 275.504 39.279C275.504 33.5889 280.162 28.9333 285.855 28.9333C291.548 28.9333 296.206 33.5889 296.206 39.279C296.206 44.883 292.497 49.2799 286.976 49.4523C287.321 49.0213 286.286 52.5561 286.717 52.2974C291.72 49.4523 297.672 49.1937 301.381 53.5906C305.09 57.9876 305.866 65.4882 301.381 69.1092C291.72 76.7823 284.388 70.7473 284.388 63.4191C284.388 64.0226 281.197 68.6781 281.197 68.6781L308.282 85.8348L313.629 83.3346C313.026 83.3346 312.508 83.3346 311.904 83.2484C306.211 82.4724 302.244 77.2134 303.106 71.5232C303.882 65.8331 309.144 61.8672 314.837 62.7293C320.444 63.5053 324.325 68.5919 323.722 74.1096C324.929 69.023 328.121 63.0742 337.005 68.9368L308.713 95.7495L224.699 38.9342C225.044 38.6755 237.723 1.77578 237.982 1.94821C238.069 2.03442 237.896 0.913638 238.069 0.999852Z" fill="#363636"/>
<path fill-rule="evenodd" clip-rule="evenodd" d="M0 259.816L32.6913 234.555L72.887 270.851L51.7541 271.886L27.8609 263.437L36.3141 254.901L30.6212 252.315L10.5233 259.816H0Z" fill="#363636"/>
<path fill-rule="evenodd" clip-rule="evenodd" d="M183.296 109.803L186.142 116.269L193.992 110.061L190.628 123.425L196.32 132.219L205.895 126.528L198.477 136.788C201.927 143.254 202.876 145.927 208.569 149.979C211.157 110.32 248.075 118.166 259.46 131.529C272.226 148.513 274.814 181.964 228.839 166.446L220.731 163.083L214.003 157.824C214.003 157.824 210.38 154.289 210.035 154.289L209.69 159.98L204.429 172.912C220.041 180.068 230.306 182.223 243.417 182.223L243.33 190.586C220.99 186.275 186.573 174.119 165.441 205.587L160.869 205.328L157.764 210.587L163.025 212.484C163.025 212.484 157.85 231.106 157.764 231.365L195.803 213.519H200.72L200.978 217.657L76.7686 278.093L58.9997 279.904L18.804 272.92L0.517578 304.389L18.804 300.509L21.6505 283.783L29.6724 285.594L23.9794 301.802L44.0773 300.25L62.1049 291.974L68.833 295.336L25.0145 316.459L50.029 351.72L48.9939 315.166L53.9105 331.115L78.6662 309.734L85.1355 308.958C85.1355 308.958 79.7876 324.132 79.7013 324.649C79.6151 325.166 94.6237 330.081 94.6237 330.081L93.5886 333.96L78.925 333.702L68.4017 344.737C83.4104 345.772 90.3971 342.927 101.352 336.978L99.5404 319.476L125.849 305.854L130.765 309.993L117.913 321.804C150.173 331.374 158.454 303.009 162.508 292.405L170.53 290.077C169.063 303.009 165.872 313.01 158.195 319.993C197.442 316.114 189.679 289.387 190.11 278.007L196.579 273.61C200.202 288.267 200.72 297.06 192.18 312.493C198.649 313.269 205.377 311.976 215.124 305.768C230.651 291.112 228.322 279.473 230.823 260.937C243.503 281.542 235.74 289.301 230.133 305.509L301.467 335.857C302.33 326.632 297.413 317.579 286.804 311.631C286.89 311.372 289.133 308.527 289.133 308.527C315.7 317.838 313.802 343.099 306.212 364.221C279.386 427.589 330.277 455.867 303.538 478.8C349.685 476.731 339.42 448.97 340.111 435.521C339.766 435.521 378.495 454.057 378.495 454.057C387.034 470.007 383.67 486.56 368.748 515.873C353.049 524.408 339.334 530.529 315.872 532.857L310.697 567.86L324.326 538.461L326.913 538.202L332.089 553.376L346.494 550.789L361.934 530.96L365.815 532.512L355.378 549.324L339.42 570.964L368.834 593.897L362.624 573.55L353.825 564.497L356.672 561.135L371.594 571.222L390.916 526.132L399.455 548.806L410.496 549.582L411.79 546.996H415.154L414.119 554.497H407.477L407.218 576.136L420.071 557.6L427.057 538.806L413.17 525.184L416.793 518.459C428.179 525.442 435.166 530.357 437.926 541.392C449.312 531.908 453.969 511.562 428.092 482.68C445.43 484.749 448.794 497.164 453.625 506.906C460.353 491.733 463.889 461.816 423.693 445.091L423.952 420.606L395.315 411.812L394.797 407.932L384.792 403.277C384.878 392.5 401.008 369.308 371.594 345.341C405.666 355.428 420.588 334.822 430.335 325.253C466.735 334.305 475.965 309.303 477 296.371C467.771 302.578 442.842 311.372 437.149 298.44C463.458 297.664 471.652 293.526 471.652 267.489C460.87 273.179 446.983 276.024 436.632 272.662C433.613 254.643 424.987 237.659 406.356 222.226C406.356 222.226 394.97 237.141 395.056 237.4C427.489 256.712 423.09 345.082 368.403 315.166L341.577 291.543L298.017 246.625C291.634 249.556 273.52 256.195 256.269 244.211C289.823 250.419 311.732 237.314 311.215 222.054C294.308 231.193 285.941 228.089 270.588 226.106L272.054 221.537C326.309 223.261 321.565 202.914 322.945 186.965C316.304 194.896 305.09 201.104 286.89 197.224L287.58 190.758C303.883 191.017 331.83 182.654 323.032 152.393C318.805 162.48 312.077 167.222 292.238 169.118L291.548 164.118C295.861 161.704 326.309 159.549 319.926 125.408C311.128 135.236 304.745 139.978 289.564 142.564L288.615 135.84C303.71 131.788 310.266 126.787 316.907 117.735C316.562 117.735 317.425 97.2155 317.425 97.2155C309.403 106.527 299.742 118.424 278.437 117.735L277.919 113.165C332.692 107.734 289.133 55.9189 263.86 99.5433L259.805 100.061L256.7 96.9569L258.339 93.8532L257.39 86.4388L214.866 58.0742L203.135 78.3346L222.456 80.2313L222.974 91.0081C222.974 91.0081 204.687 101.526 204.084 101.526C203.566 101.526 210.122 87.2147 210.122 87.2147L200.978 79.8002L183.296 109.803Z" fill="#363636"/>
<path fill-rule="evenodd" clip-rule="evenodd" d="M270.329 333.528L296.292 369.307L290.341 396.379C284.13 395.861 246.695 394.827 248.592 426.123C282.405 440.779 266.189 457.591 250.749 464.057C254.803 458.108 256.442 444.572 242.123 443.452C246.177 460.263 251.094 477.075 214.521 486.731C233.756 470.523 222.37 461.298 219.955 453.194C215.383 471.126 216.936 485.179 187.954 491.128L189.075 470.523L184.158 466.73L179.846 478.11L166.303 486.731L178.724 504.578L148.966 521.389L161.99 500.784L156.039 498.629L150.087 504.06L151.208 493.801L145.774 478.627L131.11 479.144L118.086 503.543L109.978 501.905L108.339 497.594L99.1092 492.68L97.4703 497.594L107.217 505.181L103.422 527.424L87.2058 490.611L126.194 471.644L125.073 467.333L87.7233 483.024L72.6284 470.006L70.9895 480.869L54.1694 500.87L57.9647 467.333L172.773 430.52L179.846 427.243C193.647 422.933 175.791 391.033 189.593 381.205C173.031 381.808 142.755 383.964 162.508 338.96C189.851 367.669 238.673 346.029 270.329 333.528Z" fill="#363636"/>
<path fill-rule="evenodd" clip-rule="evenodd" d="M104.026 447.246L76.9412 423.968L44.4224 457.505L53.6518 458.109L74.7847 448.366L78.0625 439.142L84.5318 442.935L83.4104 448.884L77.4587 449.918L89.3621 452.677L104.026 447.246Z" fill="#363636"/>
<path fill-rule="evenodd" clip-rule="evenodd" d="M52.5302 512.251L60.6384 505.785L74.1807 486.818L81.2537 491.128L104.026 538.805L115.411 509.578L125.158 513.372L107.821 541.995L98.0738 540.874L86.1704 519.234L80.7362 530.614L66.0725 518.717L63.9161 508.457L59.6033 517.079L62.2772 522.51C51.1501 518.717 45.1984 524.148 49.2525 550.099C41.9206 541.478 19.1488 532.253 37.349 511.647L40.023 513.285L41.6619 505.181C27.8608 484.662 41.9206 480.869 49.2525 482.421V512.251H52.5302Z" fill="#363636"/>
<path fill-rule="evenodd" clip-rule="evenodd" d="M141.979 483.542C155.78 498.716 136.286 529.58 145.774 538.805C134.647 547.513 107.562 552.945 118.689 580.533C121.191 575.015 118.431 569.756 124.641 565.877C167.166 587.603 101.61 621.657 98.6777 569.67C98.9365 557.255 121.191 543.202 121.967 529.063C136.889 515.528 134.733 500.44 130.593 492.25L141.979 483.542Z" fill="#363636"/>
<path fill-rule="evenodd" clip-rule="evenodd" d="M217.885 52.1252L261.099 83.5934L275.159 79.5414L222.715 42.6416L217.885 52.1252Z" fill="#363636"/>
</svg>
